<svg xmlns="http://www.w3.org/2000/svg" width="1440" height="900"><path d="M698,464L659,411L619,493Z" fill="#f8f1ee" stroke="#f8f1ee" stroke-width="1.51"/><path d="M659,411L591,390L619,493Z" fill="#faede6" stroke="#faede6" stroke-width="1.51"/><path d="M698,464L758,426L659,411Z" fill="#f8f4f1" stroke="#f8f4f1" stroke-width="1.51"/><path d="M659,411L651,317L591,390Z" fill="#fce7db" stroke="#fce7db" stroke-width="1.51"/><path d="M591,390L536,509L619,493Z" fill="#f8ebe3" stroke="#f8ebe3" stroke-width="1.51"/><path d="M619,493L708,588L698,464Z" fill="#eeefef" stroke="#eeefef" stroke-width="1.51"/><path d="M698,464L787,504L758,426Z" fill="#f2f4f6" stroke="#f2f4f6" stroke-width="1.51"/><path d="M536,509L580,577L619,493Z" fill="#efe6e1" stroke="#efe6e1" stroke-width="1.51"/><path d="M754,294L651,317L659,411Z" fill="#fbe8dd" stroke="#fbe8dd" stroke-width="1.51"/><path d="M580,577L708,588L619,493Z" fill="#eae9e8" stroke="#eae9e8" stroke-width="1.51"/><path d="M708,588L787,504L698,464Z" fill="#ecf1f5" stroke="#ecf1f5" stroke-width="1.51"/><path d="M708,588L730,596L787,504Z" fill="#e3edf3" stroke="#e3edf3" stroke-width="1.51"/><path d="M686,676L730,596L708,588Z" fill="#d9e6ef" stroke="#d9e6ef" stroke-width="1.51"/><path d="M591,390L493,422L536,509Z" fill="#fbe7db" stroke="#fbe7db" stroke-width="1.51"/><path d="M491,353L493,422L591,390Z" fill="#fcdece" stroke="#fcdece" stroke-width="1.51"/><path d="M651,317L584,307L591,390Z" fill="#fde1d1" stroke="#fde1d1" stroke-width="1.51"/><path d="M787,504L834,477L758,426Z" fill="#ecf1f5" stroke="#ecf1f5" stroke-width="1.51"/><path d="M758,426L754,294L659,411Z" fill="#f9eee8" stroke="#f9eee8" stroke-width="1.51"/><path d="M855,560L834,477L787,504Z" fill="#e2edf3" stroke="#e2edf3" stroke-width="1.51"/><path d="M580,577L604,672L708,588Z" fill="#dde1e4" stroke="#dde1e4" stroke-width="1.51"/><path d="M536,509L520,588L580,577Z" fill="#ebe1db" stroke="#ebe1db" stroke-width="1.51"/><path d="M405,483L520,588L536,509Z" fill="#efdad1" stroke="#efdad1" stroke-width="1.51"/><path d="M834,477L834,409L758,426Z" fill="#eef1f3" stroke="#eef1f3" stroke-width="1.51"/><path d="M584,307L491,353L591,390Z" fill="#fddecc" stroke="#fddecc" stroke-width="1.51"/><path d="M834,409L754,294L758,426Z" fill="#f3ece7" stroke="#f3ece7" stroke-width="1.51"/><path d="M651,317L659,242L584,307Z" fill="#fcd9c7" stroke="#fcd9c7" stroke-width="1.51"/><path d="M520,588L527,634L580,577Z" fill="#e2dbd9" stroke="#e2dbd9" stroke-width="1.51"/><path d="M407,611L527,634L520,588Z" fill="#e0d1cc" stroke="#e0d1cc" stroke-width="1.51"/><path d="M754,294L659,242L651,317Z" fill="#fbdccd" stroke="#fbdccd" stroke-width="1.51"/><path d="M507,199L447,336L491,353Z" fill="#fcc9b0" stroke="#fcc9b0" stroke-width="1.51"/><path d="M527,634L604,672L580,577Z" fill="#dbdbdb" stroke="#dbdbdb" stroke-width="1.51"/><path d="M604,672L686,676L708,588Z" fill="#d4dfe7" stroke="#d4dfe7" stroke-width="1.51"/><path d="M730,596L855,560L787,504Z" fill="#e0ecf3" stroke="#e0ecf3" stroke-width="1.51"/><path d="M686,676L770,649L730,596Z" fill="#d2e4ef" stroke="#d2e4ef" stroke-width="1.51"/><path d="M770,649L855,560L730,596Z" fill="#d5e6f0" stroke="#d5e6f0" stroke-width="1.51"/><path d="M834,477L916,467L834,409Z" fill="#e8eff4" stroke="#e8eff4" stroke-width="1.51"/><path d="M834,409L843,319L754,294Z" fill="#f1e6df" stroke="#f1e6df" stroke-width="1.51"/><path d="M754,294L768,211L659,242Z" fill="#f9d6c7" stroke="#f9d6c7" stroke-width="1.51"/><path d="M932,338L843,319L834,409Z" fill="#eae4e1" stroke="#eae4e1" stroke-width="1.51"/><path d="M491,353L414,391L493,422Z" fill="#fbd5c2" stroke="#fbd5c2" stroke-width="1.51"/><path d="M493,422L405,483L536,509Z" fill="#f8dcd0" stroke="#f8dcd0" stroke-width="1.51"/><path d="M563,221L491,353L584,307Z" fill="#fcd3bc" stroke="#fcd3bc" stroke-width="1.51"/><path d="M447,336L414,391L491,353Z" fill="#fbcfb9" stroke="#fbcfb9" stroke-width="1.51"/><path d="M414,391L405,483L493,422Z" fill="#fad6c5" stroke="#fad6c5" stroke-width="1.51"/><path d="M659,242L563,221L584,307Z" fill="#fbcfb9" stroke="#fbcfb9" stroke-width="1.51"/><path d="M855,560L916,467L834,477Z" fill="#dfebf3" stroke="#dfebf3" stroke-width="1.51"/><path d="M843,319L833,259L754,294Z" fill="#f1dcd2" stroke="#f1dcd2" stroke-width="1.51"/><path d="M659,242L644,171L563,221Z" fill="#fac6af" stroke="#fac6af" stroke-width="1.51"/><path d="M932,338L833,259L843,319Z" fill="#ebdcd5" stroke="#ebdcd5" stroke-width="1.51"/><path d="M833,259L768,211L754,294Z" fill="#f4d5c7" stroke="#f4d5c7" stroke-width="1.51"/><path d="M732,166L644,171L659,242Z" fill="#f9c6b2" stroke="#f9c6b2" stroke-width="1.51"/><path d="M770,649L829,684L855,560Z" fill="#cae1ed" stroke="#cae1ed" stroke-width="1.51"/><path d="M855,560L957,600L916,467Z" fill="#d3e5f0" stroke="#d3e5f0" stroke-width="1.51"/><path d="M746,765L829,684L770,649Z" fill="#bdd9e9" stroke="#bdd9e9" stroke-width="1.51"/><path d="M746,765L770,649L686,676Z" fill="#c3dcea" stroke="#c3dcea" stroke-width="1.51"/><path d="M405,483L407,611L520,588Z" fill="#ead1c7" stroke="#ead1c7" stroke-width="1.51"/><path d="M583,786L644,746L604,672Z" fill="#bfccd6" stroke="#bfccd6" stroke-width="1.51"/><path d="M604,672L644,746L686,676Z" fill="#c7d6e0" stroke="#c7d6e0" stroke-width="1.51"/><path d="M529,746L604,672L527,634Z" fill="#ced2d4" stroke="#ced2d4" stroke-width="1.51"/><path d="M916,467L945,432L834,409Z" fill="#e4ecf0" stroke="#e4ecf0" stroke-width="1.51"/><path d="M994,418L945,432L1046,471Z" fill="#d3e3ec" stroke="#d3e3ec" stroke-width="1.51"/><path d="M563,221L507,199L491,353Z" fill="#fbc7ad" stroke="#fbc7ad" stroke-width="1.51"/><path d="M329,307L341,416L414,391Z" fill="#f9c2aa" stroke="#f9c2aa" stroke-width="1.51"/><path d="M606,128L507,199L563,221Z" fill="#f7ba9f" stroke="#f7ba9f" stroke-width="1.51"/><path d="M768,211L732,166L659,242Z" fill="#facdbb" stroke="#facdbb" stroke-width="1.51"/><path d="M857,145L732,166L768,211Z" fill="#f0c1b2" stroke="#f0c1b2" stroke-width="1.51"/><path d="M945,432L932,338L834,409Z" fill="#e5e7e8" stroke="#e5e7e8" stroke-width="1.51"/><path d="M833,259L857,145L768,211Z" fill="#efc8b9" stroke="#efc8b9" stroke-width="1.51"/><path d="M414,391L341,416L405,483Z" fill="#facdba" stroke="#facdba" stroke-width="1.51"/><path d="M405,483L351,571L407,611Z" fill="#ebc8bb" stroke="#ebc8bb" stroke-width="1.51"/><path d="M329,307L414,391L447,336Z" fill="#fbc5ac" stroke="#fbc5ac" stroke-width="1.51"/><path d="M407,665L529,746L527,634Z" fill="#cfc8c8" stroke="#cfc8c8" stroke-width="1.51"/><path d="M407,611L407,665L527,634Z" fill="#dac8c2" stroke="#dac8c2" stroke-width="1.51"/><path d="M357,689L407,665L407,611Z" fill="#d5bdb5" stroke="#d5bdb5" stroke-width="1.51"/><path d="M297,478L351,571L405,483Z" fill="#efc5b6" stroke="#efc5b6" stroke-width="1.51"/><path d="M644,746L746,765L686,676Z" fill="#bdd3e3" stroke="#bdd3e3" stroke-width="1.51"/><path d="M689,815L746,765L644,746Z" fill="#b0cadd" stroke="#b0cadd" stroke-width="1.51"/><path d="M507,199L393,256L447,336Z" fill="#f9bda0" stroke="#f9bda0" stroke-width="1.51"/><path d="M644,171L606,128L563,221Z" fill="#f7bba3" stroke="#f7bba3" stroke-width="1.51"/><path d="M507,199L428,129L393,256Z" fill="#f5ac8c" stroke="#f5ac8c" stroke-width="1.51"/><path d="M705,44L606,128L644,171Z" fill="#f1ae9c" stroke="#f1ae9c" stroke-width="1.51"/><path d="M529,746L583,786L604,672Z" fill="#c0c9d1" stroke="#c0c9d1" stroke-width="1.51"/><path d="M581,820L583,786L529,746Z" fill="#b4becb" stroke="#b4becb" stroke-width="1.51"/><path d="M829,684L957,600L855,560Z" fill="#c8dfed" stroke="#c8dfed" stroke-width="1.51"/><path d="M968,675L957,600L829,684Z" fill="#b8d7e9" stroke="#b8d7e9" stroke-width="1.51"/><path d="M746,765L821,754L829,684Z" fill="#b2d1e5" stroke="#b2d1e5" stroke-width="1.51"/><path d="M945,432L994,418L932,338Z" fill="#dbe2e5" stroke="#dbe2e5" stroke-width="1.51"/><path d="M1046,471L945,432L916,467Z" fill="#d6e6f0" stroke="#d6e6f0" stroke-width="1.51"/><path d="M341,416L297,478L405,483Z" fill="#f7c8b7" stroke="#f7c8b7" stroke-width="1.51"/><path d="M276,380L297,478L341,416Z" fill="#f6bdab" stroke="#f6bdab" stroke-width="1.51"/><path d="M393,256L329,307L447,336Z" fill="#f9bc9f" stroke="#f9bc9f" stroke-width="1.51"/><path d="M583,786L689,815L644,746Z" fill="#b1c4d5" stroke="#b1c4d5" stroke-width="1.51"/><path d="M746,765L837,827L821,754Z" fill="#a4c6df" stroke="#a4c6df" stroke-width="1.51"/><path d="M583,786L581,820L689,815Z" fill="#abbdd0" stroke="#abbdd0" stroke-width="1.51"/><path d="M472,816L581,820L529,746Z" fill="#b2b8c4" stroke="#b2b8c4" stroke-width="1.51"/><path d="M407,665L405,745L529,746Z" fill="#c6bcbc" stroke="#c6bcbc" stroke-width="1.51"/><path d="M351,571L357,689L407,611Z" fill="#ddbeb4" stroke="#ddbeb4" stroke-width="1.51"/><path d="M267,603L357,689L351,571Z" fill="#dbb6ac" stroke="#dbb6ac" stroke-width="1.51"/><path d="M705,44L584,66L606,128Z" fill="#eda392" stroke="#eda392" stroke-width="1.51"/><path d="M957,222L857,145L833,259Z" fill="#e9c6b8" stroke="#e9c6b8" stroke-width="1.51"/><path d="M957,222L833,259L932,338Z" fill="#e7d2ca" stroke="#e7d2ca" stroke-width="1.51"/><path d="M522,78L474,126L507,199Z" fill="#f1a58a" stroke="#f1a58a" stroke-width="1.51"/><path d="M393,256L298,232L329,307Z" fill="#f4ab8c" stroke="#f4ab8c" stroke-width="1.51"/><path d="M689,815L736,825L746,765Z" fill="#a8c6df" stroke="#a8c6df" stroke-width="1.51"/><path d="M649,897L736,825L689,815Z" fill="#a3bbd6" stroke="#a3bbd6" stroke-width="1.51"/><path d="M358,720L405,745L407,665Z" fill="#c8b4b1" stroke="#c8b4b1" stroke-width="1.51"/><path d="M994,418L1001,312L932,338Z" fill="#dadcdd" stroke="#dadcdd" stroke-width="1.51"/><path d="M329,307L276,380L341,416Z" fill="#f6b9a1" stroke="#f6b9a1" stroke-width="1.51"/><path d="M994,677L968,675L938,761Z" fill="#a1cbe2" stroke="#a1cbe2" stroke-width="1.51"/><path d="M938,761L968,675L829,684Z" fill="#aad0e5" stroke="#aad0e5" stroke-width="1.51"/><path d="M1036,549L1046,471L916,467Z" fill="#cbe0ed" stroke="#cbe0ed" stroke-width="1.51"/><path d="M1001,312L957,222L932,338Z" fill="#ddd1cd" stroke="#ddd1cd" stroke-width="1.51"/><path d="M249,689L358,720L357,689Z" fill="#c9aaa6" stroke="#c9aaa6" stroke-width="1.51"/><path d="M357,689L358,720L407,665Z" fill="#cdb6b0" stroke="#cdb6b0" stroke-width="1.51"/><path d="M994,418L1099,393L1001,312Z" fill="#d0d8de" stroke="#d0d8de" stroke-width="1.51"/><path d="M1036,549L916,467L957,600Z" fill="#c9e0ed" stroke="#c9e0ed" stroke-width="1.51"/><path d="M994,677L1036,549L957,600Z" fill="#b5d6e8" stroke="#b5d6e8" stroke-width="1.51"/><path d="M474,126L428,129L507,199Z" fill="#f2a488" stroke="#f2a488" stroke-width="1.51"/><path d="M329,307L267,345L276,380Z" fill="#f4b199" stroke="#f4b199" stroke-width="1.51"/><path d="M606,128L522,78L507,199Z" fill="#f3ab92" stroke="#f3ab92" stroke-width="1.51"/><path d="M474,126L441,90L428,129Z" fill="#ec967b" stroke="#ec967b" stroke-width="1.51"/><path d="M705,44L644,171L732,166Z" fill="#f2b5a5" stroke="#f2b5a5" stroke-width="1.51"/><path d="M213,489L267,603L297,478Z" fill="#e8b2a6" stroke="#e8b2a6" stroke-width="1.51"/><path d="M298,232L267,345L329,307Z" fill="#f3aa8e" stroke="#f3aa8e" stroke-width="1.51"/><path d="M415,834L472,816L405,745Z" fill="#b2a8b0" stroke="#b2a8b0" stroke-width="1.51"/><path d="M405,745L472,816L529,746Z" fill="#b9b4bb" stroke="#b9b4bb" stroke-width="1.51"/><path d="M584,66L522,78L606,128Z" fill="#eea18b" stroke="#eea18b" stroke-width="1.51"/><path d="M968,675L994,677L957,600Z" fill="#aed3e6" stroke="#aed3e6" stroke-width="1.51"/><path d="M938,761L829,684L821,754Z" fill="#abcee3" stroke="#abcee3" stroke-width="1.51"/><path d="M297,478L267,603L351,571Z" fill="#e7b9ad" stroke="#e7b9ad" stroke-width="1.51"/><path d="M213,489L297,478L276,380Z" fill="#f2b8a8" stroke="#f2b8a8" stroke-width="1.51"/><path d="M736,825L837,827L746,765Z" fill="#a1c2dd" stroke="#a1c2dd" stroke-width="1.51"/><path d="M857,145L748,55L732,166Z" fill="#ecb3a6" stroke="#ecb3a6" stroke-width="1.51"/><path d="M844,46L748,55L857,145Z" fill="#e5a69c" stroke="#e5a69c" stroke-width="1.51"/><path d="M748,55L705,44L732,166Z" fill="#eeac9f" stroke="#eeac9f" stroke-width="1.51"/><path d="M837,827L938,761L821,754Z" fill="#9dc3de" stroke="#9dc3de" stroke-width="1.51"/><path d="M340,158L298,232L393,256Z" fill="#f2a17f" stroke="#f2a17f" stroke-width="1.51"/><path d="M428,129L340,158L393,256Z" fill="#f2a07e" stroke="#f2a07e" stroke-width="1.51"/><path d="M522,78L441,90L474,126Z" fill="#ec977d" stroke="#ec977d" stroke-width="1.51"/><path d="M340,93L441,90L451,-42Z" fill="#e27f67" stroke="#e27f67" stroke-width="1.51"/><path d="M441,90L522,78L451,-42Z" fill="#e48872" stroke="#e48872" stroke-width="1.51"/><path d="M957,222L939,138L857,145Z" fill="#e1b8ad" stroke="#e1b8ad" stroke-width="1.51"/><path d="M1013,206L939,138L957,222Z" fill="#dbb9b0" stroke="#dbb9b0" stroke-width="1.51"/><path d="M340,93L340,158L428,129Z" fill="#ea8d6f" stroke="#ea8d6f" stroke-width="1.51"/><path d="M185,424L213,489L276,380Z" fill="#f0af9f" stroke="#f0af9f" stroke-width="1.51"/><path d="M185,424L276,380L267,345Z" fill="#f1ac98" stroke="#f1ac98" stroke-width="1.51"/><path d="M581,820L649,897L689,815Z" fill="#a6b7cf" stroke="#a6b7cf" stroke-width="1.51"/><path d="M736,825L755,922L837,827Z" fill="#9ab8d8" stroke="#9ab8d8" stroke-width="1.51"/><path d="M609,945L649,897L581,820Z" fill="#a2acc8" stroke="#a2acc8" stroke-width="1.51"/><path d="M1087,263L1013,206L1001,312Z" fill="#d2c4c0" stroke="#d2c4c0" stroke-width="1.51"/><path d="M1001,312L1013,206L957,222Z" fill="#d9c5bf" stroke="#d9c5bf" stroke-width="1.51"/><path d="M472,816L531,926L581,820Z" fill="#a9abbe" stroke="#a9abbe" stroke-width="1.51"/><path d="M365,850L415,834L405,745Z" fill="#b0a0a8" stroke="#b0a0a8" stroke-width="1.51"/><path d="M365,850L405,745L358,720Z" fill="#b9a5a8" stroke="#b9a5a8" stroke-width="1.51"/><path d="M1046,471L1099,393L994,418Z" fill="#cbdde7" stroke="#cbdde7" stroke-width="1.51"/><path d="M1139,513L1099,393L1046,471Z" fill="#bfd9e8" stroke="#bfd9e8" stroke-width="1.51"/><path d="M1139,513L1046,471L1036,549Z" fill="#bbd8e8" stroke="#bbd8e8" stroke-width="1.51"/><path d="M777,-35L697,-38L705,44Z" fill="#e2958e" stroke="#e2958e" stroke-width="1.51"/><path d="M956,89L844,46L857,145Z" fill="#e0a69d" stroke="#e0a69d" stroke-width="1.51"/><path d="M956,89L857,145L939,138Z" fill="#deaca3" stroke="#deaca3" stroke-width="1.51"/><path d="M298,232L178,322L267,345Z" fill="#f0a187" stroke="#f0a187" stroke-width="1.51"/><path d="M340,158L271,200L298,232Z" fill="#ed9474" stroke="#ed9474" stroke-width="1.51"/><path d="M238,158L271,200L340,158Z" fill="#e9896b" stroke="#e9896b" stroke-width="1.51"/><path d="M267,603L249,689L357,689Z" fill="#d0aaa4" stroke="#d0aaa4" stroke-width="1.51"/><path d="M178,634L249,689L267,603Z" fill="#d1a19b" stroke="#d1a19b" stroke-width="1.51"/><path d="M178,322L185,424L267,345Z" fill="#efa490" stroke="#efa490" stroke-width="1.51"/><path d="M213,489L178,634L267,603Z" fill="#dea79e" stroke="#dea79e" stroke-width="1.51"/><path d="M1113,688L1140,601L1036,549Z" fill="#a1cbe2" stroke="#a1cbe2" stroke-width="1.51"/><path d="M938,761L1049,730L994,677Z" fill="#97c5de" stroke="#97c5de" stroke-width="1.51"/><path d="M837,827L965,809L938,761Z" fill="#91bcda" stroke="#91bcda" stroke-width="1.51"/><path d="M962,908L965,809L837,827Z" fill="#87b2d5" stroke="#87b2d5" stroke-width="1.51"/><path d="M649,897L755,922L736,825Z" fill="#9eb5d6" stroke="#9eb5d6" stroke-width="1.51"/><path d="M1099,393L1087,263L1001,312Z" fill="#cdcfd1" stroke="#cdcfd1" stroke-width="1.51"/><path d="M1036,163L956,89L939,138Z" fill="#d5a8a1" stroke="#d5a8a1" stroke-width="1.51"/><path d="M1036,163L939,138L1013,206Z" fill="#d5b1aa" stroke="#d5b1aa" stroke-width="1.51"/><path d="M441,90L340,93L428,129Z" fill="#e98c70" stroke="#e98c70" stroke-width="1.51"/><path d="M531,-46L522,78L584,66Z" fill="#e6927e" stroke="#e6927e" stroke-width="1.51"/><path d="M965,809L1049,730L938,761Z" fill="#8cbdda" stroke="#8cbdda" stroke-width="1.51"/><path d="M415,834L531,926L472,816Z" fill="#a9a2b3" stroke="#a9a2b3" stroke-width="1.51"/><path d="M649,897L684,991L755,922Z" fill="#99a9cd" stroke="#99a9cd" stroke-width="1.51"/><path d="M1087,263L1036,163L1013,206Z" fill="#d0b8b1" stroke="#d0b8b1" stroke-width="1.51"/><path d="M415,834L391,948L531,926Z" fill="#a595aa" stroke="#a595aa" stroke-width="1.51"/><path d="M267,774L365,850L358,720Z" fill="#b59b9f" stroke="#b59b9f" stroke-width="1.51"/><path d="M531,926L609,945L581,820Z" fill="#a2a7c1" stroke="#a2a7c1" stroke-width="1.51"/><path d="M1140,601L1139,513L1036,549Z" fill="#add0e5" stroke="#add0e5" stroke-width="1.51"/><path d="M1099,393L1141,301L1087,263Z" fill="#c4c8cc" stroke="#c4c8cc" stroke-width="1.51"/><path d="M171,225L298,232L271,200Z" fill="#ea8f71" stroke="#ea8f71" stroke-width="1.51"/><path d="M171,225L178,322L298,232Z" fill="#eb9277" stroke="#eb9277" stroke-width="1.51"/><path d="M37,373L156,461L185,424Z" fill="#e89d90" stroke="#e89d90" stroke-width="1.51"/><path d="M185,424L156,461L213,489Z" fill="#eca99d" stroke="#eca99d" stroke-width="1.51"/><path d="M249,689L267,774L358,720Z" fill="#c09f9e" stroke="#c09f9e" stroke-width="1.51"/><path d="M167,828L267,774L130,776Z" fill="#ab7f88" stroke="#ab7f88" stroke-width="1.51"/><path d="M705,44L600,-43L584,66Z" fill="#e69688" stroke="#e69688" stroke-width="1.51"/><path d="M777,-35L705,44L748,55Z" fill="#e59c93" stroke="#e59c93" stroke-width="1.51"/><path d="M777,-35L748,55L844,46Z" fill="#e09a92" stroke="#e09a92" stroke-width="1.51"/><path d="M697,-38L600,-43L705,44Z" fill="#e29187" stroke="#e29187" stroke-width="1.51"/><path d="M124,561L178,634L213,489Z" fill="#dda098" stroke="#dda098" stroke-width="1.51"/><path d="M837,-56L777,-35L844,46Z" fill="#d9908c" stroke="#d9908c" stroke-width="1.51"/><path d="M697,-38L658,-99L600,-43Z" fill="#d68780" stroke="#d68780" stroke-width="1.51"/><path d="M1113,688L1036,549L994,677Z" fill="#a4cde3" stroke="#a4cde3" stroke-width="1.51"/><path d="M340,93L238,158L340,158Z" fill="#e68467" stroke="#e68467" stroke-width="1.51"/><path d="M1087,263L1074,136L1036,163Z" fill="#ccb0ab" stroke="#ccb0ab" stroke-width="1.51"/><path d="M1198,429L1141,301L1099,393Z" fill="#bbc9d5" stroke="#bbc9d5" stroke-width="1.51"/><path d="M1198,429L1099,393L1139,513Z" fill="#b7d1e4" stroke="#b7d1e4" stroke-width="1.51"/><path d="M1094,775L1113,688L1049,730Z" fill="#83bad8" stroke="#83bad8" stroke-width="1.51"/><path d="M1049,730L1113,688L994,677Z" fill="#93c4de" stroke="#93c4de" stroke-width="1.51"/><path d="M600,-43L531,-46L584,66Z" fill="#e28b7c" stroke="#e28b7c" stroke-width="1.51"/><path d="M139,74L157,178L238,158Z" fill="#da6b55" stroke="#da6b55" stroke-width="1.51"/><path d="M1194,647L1162,592L1140,601Z" fill="#94c1dc" stroke="#94c1dc" stroke-width="1.51"/><path d="M1140,601L1162,592L1139,513Z" fill="#a3c9e1" stroke="#a3c9e1" stroke-width="1.51"/><path d="M915,-38L837,-56L844,46Z" fill="#d48e8b" stroke="#d48e8b" stroke-width="1.51"/><path d="M1036,163L1031,89L956,89Z" fill="#cfa29c" stroke="#cfa29c" stroke-width="1.51"/><path d="M1074,136L1031,89L1036,163Z" fill="#caa29e" stroke="#caa29e" stroke-width="1.51"/><path d="M365,850L391,948L415,834Z" fill="#a892a1" stroke="#a892a1" stroke-width="1.51"/><path d="M267,774L263,820L365,850Z" fill="#ac8e97" stroke="#ac8e97" stroke-width="1.51"/><path d="M167,828L263,820L267,774Z" fill="#aa848d" stroke="#aa848d" stroke-width="1.51"/><path d="M755,922L858,947L837,827Z" fill="#91aed3" stroke="#91aed3" stroke-width="1.51"/><path d="M1048,848L1094,775L1049,730Z" fill="#77b2d4" stroke="#77b2d4" stroke-width="1.51"/><path d="M823,986L858,947L755,922Z" fill="#8ba2c9" stroke="#8ba2c9" stroke-width="1.51"/><path d="M1175,238L1074,136L1087,263Z" fill="#c5b0ae" stroke="#c5b0ae" stroke-width="1.51"/><path d="M1162,592L1182,502L1139,513Z" fill="#a6c9e1" stroke="#a6c9e1" stroke-width="1.51"/><path d="M238,158L171,225L271,200Z" fill="#e68468" stroke="#e68468" stroke-width="1.51"/><path d="M37,373L88,494L156,461Z" fill="#e69a90" stroke="#e69a90" stroke-width="1.51"/><path d="M609,945L684,991L649,897Z" fill="#9aa3c5" stroke="#9aa3c5" stroke-width="1.51"/><path d="M562,1023L684,991L609,945Z" fill="#9496b3" stroke="#9496b3" stroke-width="1.51"/><path d="M562,1023L609,945L531,926Z" fill="#9a98b3" stroke="#9a98b3" stroke-width="1.51"/><path d="M156,461L124,561L213,489Z" fill="#e4a299" stroke="#e4a299" stroke-width="1.51"/><path d="M130,776L267,774L249,689Z" fill="#b88d90" stroke="#b88d90" stroke-width="1.51"/><path d="M88,494L124,561L156,461Z" fill="#e19c94" stroke="#e19c94" stroke-width="1.51"/><path d="M531,-46L451,-42L522,78Z" fill="#e08270" stroke="#e08270" stroke-width="1.51"/><path d="M1048,848L1049,730L965,809Z" fill="#7cb3d5" stroke="#7cb3d5" stroke-width="1.51"/><path d="M1113,688L1194,647L1140,601Z" fill="#8ebedb" stroke="#8ebedb" stroke-width="1.51"/><path d="M777,-35L739,-82L697,-38Z" fill="#d88d88" stroke="#d88d88" stroke-width="1.51"/><path d="M600,-43L585,-107L531,-46Z" fill="#d38075" stroke="#d38075" stroke-width="1.51"/><path d="M915,-38L844,46L956,89Z" fill="#d69792" stroke="#d69792" stroke-width="1.51"/><path d="M837,-56L739,-82L777,-35Z" fill="#d18a87" stroke="#d18a87" stroke-width="1.51"/><path d="M531,-46L489,-79L451,-42Z" fill="#d47668" stroke="#d47668" stroke-width="1.51"/><path d="M858,947L962,908L837,827Z" fill="#89abd2" stroke="#89abd2" stroke-width="1.51"/><path d="M1182,502L1198,429L1139,513Z" fill="#accbe1" stroke="#accbe1" stroke-width="1.51"/><path d="M1141,301L1175,238L1087,263Z" fill="#c1b8bb" stroke="#c1b8bb" stroke-width="1.51"/><path d="M263,820L321,901L365,850Z" fill="#a88996" stroke="#a88996" stroke-width="1.51"/><path d="M321,901L391,948L365,850Z" fill="#a5889a" stroke="#a5889a" stroke-width="1.51"/><path d="M858,947L913,977L962,908Z" fill="#7f9fc9" stroke="#7f9fc9" stroke-width="1.51"/><path d="M774,1043L823,986L755,922Z" fill="#899bbf" stroke="#899bbf" stroke-width="1.51"/><path d="M962,908L1048,848L965,809Z" fill="#79aad1" stroke="#79aad1" stroke-width="1.51"/><path d="M739,-82L658,-99L697,-38Z" fill="#d28985" stroke="#d28985" stroke-width="1.51"/><path d="M432,979L484,990L531,926Z" fill="#9b8ca4" stroke="#9b8ca4" stroke-width="1.51"/><path d="M585,-107L489,-79L531,-46Z" fill="#ce7a6f" stroke="#ce7a6f" stroke-width="1.51"/><path d="M212,56L238,158L340,93Z" fill="#de7159" stroke="#de7159" stroke-width="1.51"/><path d="M837,-56L871,-96L739,-82Z" fill="#c78686" stroke="#c78686" stroke-width="1.51"/><path d="M1029,-54L915,-38L956,89Z" fill="#c98a89" stroke="#c98a89" stroke-width="1.51"/><path d="M871,-96L915,-38L928,-145Z" fill="#b97f83" stroke="#b97f83" stroke-width="1.51"/><path d="M124,561L98,601L178,634Z" fill="#d39691" stroke="#d39691" stroke-width="1.51"/><path d="M37,373L185,424L178,322Z" fill="#e89888" stroke="#e89888" stroke-width="1.51"/><path d="M391,948L432,979L531,926Z" fill="#9e8ba2" stroke="#9e8ba2" stroke-width="1.51"/><path d="M346,990L432,979L391,948Z" fill="#9a7d8f" stroke="#9a7d8f" stroke-width="1.51"/><path d="M171,225L86,261L178,322Z" fill="#e58771" stroke="#e58771" stroke-width="1.51"/><path d="M238,158L157,178L171,225Z" fill="#e27b61" stroke="#e27b61" stroke-width="1.51"/><path d="M212,56L340,93L229,-32Z" fill="#d5614e" stroke="#d5614e" stroke-width="1.51"/><path d="M1211,300L1175,238L1141,301Z" fill="#bab5bc" stroke="#bab5bc" stroke-width="1.51"/><path d="M1074,136L1090,51L1031,89Z" fill="#c49794" stroke="#c49794" stroke-width="1.51"/><path d="M658,-99L585,-107L600,-43Z" fill="#cd8179" stroke="#cd8179" stroke-width="1.51"/><path d="M88,494L98,601L124,561Z" fill="#d99690" stroke="#d99690" stroke-width="1.51"/><path d="M263,820L272,935L321,901Z" fill="#a37e8e" stroke="#a37e8e" stroke-width="1.51"/><path d="M484,990L562,1023L531,926Z" fill="#988fa8" stroke="#988fa8" stroke-width="1.51"/><path d="M684,991L774,1043L755,922Z" fill="#8e9dc0" stroke="#8e9dc0" stroke-width="1.51"/><path d="M346,990L562,1023L484,990Z" fill="#958194" stroke="#958194" stroke-width="1.51"/><path d="M1314,559L1289,492L1182,502Z" fill="#98bcda" stroke="#98bcda" stroke-width="1.51"/><path d="M1304,440L1266,330L1198,429Z" fill="#a7bbd2" stroke="#a7bbd2" stroke-width="1.51"/><path d="M1205,776L1194,647L1113,688Z" fill="#79b3d5" stroke="#79b3d5" stroke-width="1.51"/><path d="M1205,776L1113,688L1094,775Z" fill="#73afd3" stroke="#73afd3" stroke-width="1.51"/><path d="M98,601L104,650L178,634Z" fill="#cc918f" stroke="#cc918f" stroke-width="1.51"/><path d="M962,908L1004,923L1048,848Z" fill="#73a1cc" stroke="#73a1cc" stroke-width="1.51"/><path d="M823,986L913,977L858,947Z" fill="#829bc3" stroke="#829bc3" stroke-width="1.51"/><path d="M774,1043L913,977L823,986Z" fill="#8094b9" stroke="#8094b9" stroke-width="1.51"/><path d="M1266,330L1211,300L1198,429Z" fill="#aebbcb" stroke="#aebbcb" stroke-width="1.51"/><path d="M1198,429L1211,300L1141,301Z" fill="#b6c0cd" stroke="#b6c0cd" stroke-width="1.51"/><path d="M1048,848L1099,838L1094,775Z" fill="#6aa8cf" stroke="#6aa8cf" stroke-width="1.51"/><path d="M913,977L1004,923L962,908Z" fill="#779dca" stroke="#779dca" stroke-width="1.51"/><path d="M1125,910L1099,838L1048,848Z" fill="#639eca" stroke="#639eca" stroke-width="1.51"/><path d="M328,-51L340,93L451,-42Z" fill="#da6e59" stroke="#da6e59" stroke-width="1.51"/><path d="M915,-38L871,-96L837,-56Z" fill="#c78586" stroke="#c78586" stroke-width="1.51"/><path d="M739,-82L928,-145L658,-99Z" fill="#c08385" stroke="#c08385" stroke-width="1.51"/><path d="M658,-99L928,-145L585,-107Z" fill="#c28585" stroke="#c28585" stroke-width="1.51"/><path d="M1029,-54L956,89L1031,89Z" fill="#c8908f" stroke="#c8908f" stroke-width="1.51"/><path d="M562,1023L774,1043L684,991Z" fill="#8c91af" stroke="#8c91af" stroke-width="1.51"/><path d="M88,172L86,261L171,225Z" fill="#de7760" stroke="#de7760" stroke-width="1.51"/><path d="M88,172L171,225L157,178Z" fill="#dd745d" stroke="#dd745d" stroke-width="1.51"/><path d="M1179,72L1090,51L1074,136Z" fill="#bc8f90" stroke="#bc8f90" stroke-width="1.51"/><path d="M1218,135L1074,136L1175,238Z" fill="#bb9fa0" stroke="#bb9fa0" stroke-width="1.51"/><path d="M385,-134L451,-42L489,-79Z" fill="#c76b5d" stroke="#c76b5d" stroke-width="1.51"/><path d="M385,-134L328,-51L451,-42Z" fill="#c76354" stroke="#c76354" stroke-width="1.51"/><path d="M130,776L249,689L178,634Z" fill="#c19291" stroke="#c19291" stroke-width="1.51"/><path d="M321,901L346,990L391,948Z" fill="#9f7d91" stroke="#9f7d91" stroke-width="1.51"/><path d="M432,979L346,990L484,990Z" fill="#987e91" stroke="#987e91" stroke-width="1.51"/><path d="M167,928L272,935L263,820Z" fill="#9f7286" stroke="#9f7286" stroke-width="1.51"/><path d="M101,744L130,776L178,634Z" fill="#b98689" stroke="#b98689" stroke-width="1.51"/><path d="M272,935L346,990L321,901Z" fill="#9d778d" stroke="#9d778d" stroke-width="1.51"/><path d="M86,261L60,289L178,322Z" fill="#e38773" stroke="#e38773" stroke-width="1.51"/><path d="M88,494L-12,593L98,601Z" fill="#d38e8a" stroke="#d38e8a" stroke-width="1.51"/><path d="M-4,295L60,289L-47,246Z" fill="#d47465" stroke="#d47465" stroke-width="1.51"/><path d="M60,289L37,373L178,322Z" fill="#e38d7b" stroke="#e38d7b" stroke-width="1.51"/><path d="M16,720L101,744L104,650Z" fill="#b77f83" stroke="#b77f83" stroke-width="1.51"/><path d="M104,650L101,744L178,634Z" fill="#c28c8c" stroke="#c28c8c" stroke-width="1.51"/><path d="M-4,635L104,650L98,601Z" fill="#c78888" stroke="#c78888" stroke-width="1.51"/><path d="M55,925L167,928L167,828Z" fill="#986278" stroke="#986278" stroke-width="1.51"/><path d="M1281,239L1218,135L1175,238Z" fill="#b19ea3" stroke="#b19ea3" stroke-width="1.51"/><path d="M1289,492L1198,429L1182,502Z" fill="#a4c4de" stroke="#a4c4de" stroke-width="1.51"/><path d="M139,74L88,172L157,178Z" fill="#d66451" stroke="#d66451" stroke-width="1.51"/><path d="M60,289L-4,295L37,373Z" fill="#dd8172" stroke="#dd8172" stroke-width="1.51"/><path d="M1090,51L1029,-54L1031,89Z" fill="#c08a8a" stroke="#c08a8a" stroke-width="1.51"/><path d="M1114,-29L1029,-54L1090,51Z" fill="#b77e82" stroke="#b77e82" stroke-width="1.51"/><path d="M1228,866L1205,776L1099,838Z" fill="#5299c6" stroke="#5299c6" stroke-width="1.51"/><path d="M1099,838L1205,776L1094,775Z" fill="#64a5ce" stroke="#64a5ce" stroke-width="1.51"/><path d="M1314,559L1182,502L1162,592Z" fill="#98bfdc" stroke="#98bfdc" stroke-width="1.51"/><path d="M1274,632L1162,592L1194,647Z" fill="#87b9d8" stroke="#87b9d8" stroke-width="1.51"/><path d="M185,-30L139,74L212,56Z" fill="#cc4f42" stroke="#cc4f42" stroke-width="1.51"/><path d="M212,56L139,74L238,158Z" fill="#d7624e" stroke="#d7624e" stroke-width="1.51"/><path d="M328,-51L229,-32L340,93Z" fill="#d3604f" stroke="#d3604f" stroke-width="1.51"/><path d="M263,-136L229,-32L328,-51Z" fill="#be4d43" stroke="#be4d43" stroke-width="1.51"/><path d="M1275,781L1274,632L1194,647Z" fill="#6fabd1" stroke="#6fabd1" stroke-width="1.51"/><path d="M928,-145L385,-134L585,-107Z" fill="#be7c79" stroke="#be7c79" stroke-width="1.51"/><path d="M585,-107L385,-134L489,-79Z" fill="#c26f64" stroke="#c26f64" stroke-width="1.51"/><path d="M1281,239L1175,238L1211,300Z" fill="#b1aab3" stroke="#b1aab3" stroke-width="1.51"/><path d="M1289,492L1304,440L1198,429Z" fill="#a3c0dc" stroke="#a3c0dc" stroke-width="1.51"/><path d="M1266,330L1281,239L1211,300Z" fill="#adacb9" stroke="#adacb9" stroke-width="1.51"/><path d="M1390,467L1304,440L1289,492Z" fill="#9cb6d7" stroke="#9cb6d7" stroke-width="1.51"/><path d="M1218,135L1179,72L1074,136Z" fill="#b78f93" stroke="#b78f93" stroke-width="1.51"/><path d="M1032,1043L1004,923L913,977Z" fill="#6c8fba" stroke="#6c8fba" stroke-width="1.51"/><path d="M1089,1007L1125,910L1004,923Z" fill="#5e90c0" stroke="#5e90c0" stroke-width="1.51"/><path d="M1004,923L1125,910L1048,848Z" fill="#679cca" stroke="#679cca" stroke-width="1.51"/><path d="M871,-96L928,-145L739,-82Z" fill="#b98083" stroke="#b98083" stroke-width="1.51"/><path d="M1010,-104L928,-145L915,-38Z" fill="#b17b80" stroke="#b17b80" stroke-width="1.51"/><path d="M1010,-104L915,-38L1029,-54Z" fill="#b77d81" stroke="#b77d81" stroke-width="1.51"/><path d="M1088,-93L1010,-104L1029,-54Z" fill="#a8757d" stroke="#a8757d" stroke-width="1.51"/><path d="M1345,303L1281,239L1266,330Z" fill="#a9a6b7" stroke="#a9a6b7" stroke-width="1.51"/><path d="M1274,632L1314,559L1162,592Z" fill="#89b7d7" stroke="#89b7d7" stroke-width="1.51"/><path d="M1352,563L1314,559L1274,632Z" fill="#87afd4" stroke="#87afd4" stroke-width="1.51"/><path d="M1167,-31L1114,-29L1090,51Z" fill="#b07980" stroke="#b07980" stroke-width="1.51"/><path d="M385,-134L311,-124L328,-51Z" fill="#bb574c" stroke="#bb574c" stroke-width="1.51"/><path d="M135,-103L185,-30L229,-32Z" fill="#bb3b39" stroke="#bb3b39" stroke-width="1.51"/><path d="M229,-32L185,-30L212,56Z" fill="#ca4b41" stroke="#ca4b41" stroke-width="1.51"/><path d="M-47,246L86,261L88,172Z" fill="#d86d5b" stroke="#d86d5b" stroke-width="1.51"/><path d="M272,935L222,985L346,990Z" fill="#966a7e" stroke="#966a7e" stroke-width="1.51"/><path d="M167,828L167,928L263,820Z" fill="#a17383" stroke="#a17383" stroke-width="1.51"/><path d="M49,806L167,828L130,776Z" fill="#a2727e" stroke="#a2727e" stroke-width="1.51"/><path d="M-25,500L-12,593L88,494Z" fill="#d28a87" stroke="#d28a87" stroke-width="1.51"/><path d="M-47,246L60,289L86,261Z" fill="#da7564" stroke="#da7564" stroke-width="1.51"/><path d="M55,76L88,172L139,74Z" fill="#ce5446" stroke="#ce5446" stroke-width="1.51"/><path d="M-25,500L88,494L37,373Z" fill="#df918b" stroke="#df918b" stroke-width="1.51"/><path d="M101,744L49,806L130,776Z" fill="#a8747e" stroke="#a8747e" stroke-width="1.51"/><path d="M-41,404L-25,500L37,373Z" fill="#d68a84" stroke="#d68a84" stroke-width="1.51"/><path d="M-12,593L-4,635L98,601Z" fill="#c78485" stroke="#c78485" stroke-width="1.51"/><path d="M167,928L222,985L272,935Z" fill="#97657c" stroke="#97657c" stroke-width="1.51"/><path d="M346,990L132,1039L562,1023Z" fill="#906b7a" stroke="#906b7a" stroke-width="1.51"/><path d="M-4,635L16,720L104,650Z" fill="#bc7f82" stroke="#bc7f82" stroke-width="1.51"/><path d="M1304,440L1340,381L1266,330Z" fill="#a5b3cc" stroke="#a5b3cc" stroke-width="1.51"/><path d="M1390,467L1340,381L1304,440Z" fill="#9fb2d2" stroke="#9fb2d2" stroke-width="1.51"/><path d="M-4,295L-41,404L37,373Z" fill="#d78378" stroke="#d78378" stroke-width="1.51"/><path d="M-25,500L-92,578L-12,593Z" fill="#c08284" stroke="#c08284" stroke-width="1.51"/><path d="M16,720L49,806L101,744Z" fill="#a9727c" stroke="#a9727c" stroke-width="1.51"/><path d="M167,928L132,1039L222,985Z" fill="#8c546b" stroke="#8c546b" stroke-width="1.51"/><path d="M774,1043L1032,1043L913,977Z" fill="#748bb1" stroke="#748bb1" stroke-width="1.51"/><path d="M1205,776L1275,781L1194,647Z" fill="#63a5cd" stroke="#63a5cd" stroke-width="1.51"/><path d="M1228,866L1275,781L1205,776Z" fill="#4694c3" stroke="#4694c3" stroke-width="1.51"/><path d="M1032,1043L1089,1007L1004,923Z" fill="#5f88b3" stroke="#5f88b3" stroke-width="1.51"/><path d="M1228,866L1099,838L1125,910Z" fill="#5494c5" stroke="#5494c5" stroke-width="1.51"/><path d="M1167,-31L1088,-93L1114,-29Z" fill="#a7707a" stroke="#a7707a" stroke-width="1.51"/><path d="M1114,-29L1088,-93L1029,-54Z" fill="#ac767d" stroke="#ac767d" stroke-width="1.51"/><path d="M1010,-104L1088,-93L928,-145Z" fill="#a3747c" stroke="#a3747c" stroke-width="1.51"/><path d="M1167,-31L1090,51L1179,72Z" fill="#b17e85" stroke="#b17e85" stroke-width="1.51"/><path d="M1167,-31L1179,72L1288,-7Z" fill="#a3707d" stroke="#a3707d" stroke-width="1.51"/><path d="M1197,946L1228,866L1125,910Z" fill="#4789bf" stroke="#4789bf" stroke-width="1.51"/><path d="M57,-20L55,76L139,74Z" fill="#c43f3a" stroke="#c43f3a" stroke-width="1.51"/><path d="M-4,295L-134,320L-41,404Z" fill="#c97b72" stroke="#c97b72" stroke-width="1.51"/><path d="M1383,691L1352,563L1274,632Z" fill="#7aa6cf" stroke="#7aa6cf" stroke-width="1.51"/><path d="M1314,559L1352,563L1289,492Z" fill="#90b2d5" stroke="#90b2d5" stroke-width="1.51"/><path d="M185,-30L57,-20L139,74Z" fill="#c33e3a" stroke="#c33e3a" stroke-width="1.51"/><path d="M311,-124L263,-136L328,-51Z" fill="#b74f46" stroke="#b74f46" stroke-width="1.51"/><path d="M385,-134L263,-136L311,-124Z" fill="#af5047" stroke="#af5047" stroke-width="1.51"/><path d="M928,-145L263,-136L385,-134Z" fill="#b9716a" stroke="#b9716a" stroke-width="1.51"/><path d="M1310,92L1179,72L1218,135Z" fill="#a8808a" stroke="#a8808a" stroke-width="1.51"/><path d="M1281,239L1304,160L1218,135Z" fill="#ab909a" stroke="#ab909a" stroke-width="1.51"/><path d="M1340,381L1345,303L1266,330Z" fill="#a7acc3" stroke="#a7acc3" stroke-width="1.51"/><path d="M1421,302L1345,303L1340,381Z" fill="#a3a4be" stroke="#a3a4be" stroke-width="1.51"/><path d="M55,76L15,126L88,172Z" fill="#cc5245" stroke="#cc5245" stroke-width="1.51"/><path d="M1351,237L1304,160L1281,239Z" fill="#a993a0" stroke="#a993a0" stroke-width="1.51"/><path d="M15,126L-47,246L88,172Z" fill="#cf5e4e" stroke="#cf5e4e" stroke-width="1.51"/><path d="M1089,1007L1197,946L1125,910Z" fill="#4e85b9" stroke="#4e85b9" stroke-width="1.51"/><path d="M1228,866L1290,848L1275,781Z" fill="#3f8cbf" stroke="#3f8cbf" stroke-width="1.51"/><path d="M1200,1024L1197,946L1089,1007Z" fill="#4378ab" stroke="#4378ab" stroke-width="1.51"/><path d="M1345,303L1351,237L1281,239Z" fill="#a89bac" stroke="#a89bac" stroke-width="1.51"/><path d="M1421,302L1351,237L1345,303Z" fill="#a499af" stroke="#a499af" stroke-width="1.51"/><path d="M1352,563L1390,467L1289,492Z" fill="#94b0d5" stroke="#94b0d5" stroke-width="1.51"/><path d="M1464,491L1390,467L1352,563Z" fill="#8fa8d1" stroke="#8fa8d1" stroke-width="1.51"/><path d="M1294,896L1290,848L1228,866Z" fill="#3a83bc" stroke="#3a83bc" stroke-width="1.51"/><path d="M1275,781L1383,691L1274,632Z" fill="#66a0cb" stroke="#66a0cb" stroke-width="1.51"/><path d="M-4,635L-75,687L16,720Z" fill="#ad777e" stroke="#ad777e" stroke-width="1.51"/><path d="M-23,845L55,925L49,806Z" fill="#945a70" stroke="#945a70" stroke-width="1.51"/><path d="M-12,593L-92,578L-4,635Z" fill="#b97f82" stroke="#b97f82" stroke-width="1.51"/><path d="M-107,486L-92,578L-25,500Z" fill="#bc8184" stroke="#bc8184" stroke-width="1.51"/><path d="M-107,486L-25,500L-41,404Z" fill="#c98786" stroke="#c98786" stroke-width="1.51"/><path d="M1361,137L1310,92L1304,160Z" fill="#a37c8c" stroke="#a37c8c" stroke-width="1.51"/><path d="M1304,160L1310,92L1218,135Z" fill="#a7828f" stroke="#a7828f" stroke-width="1.51"/><path d="M-23,845L49,806L16,720Z" fill="#9b6675" stroke="#9b6675" stroke-width="1.51"/><path d="M49,806L55,925L167,828Z" fill="#996477" stroke="#996477" stroke-width="1.51"/><path d="M-127,428L-107,486L-41,404Z" fill="#c28383" stroke="#c28383" stroke-width="1.51"/><path d="M-87,754L-75,687L-92,578Z" fill="#9e727b" stroke="#9e727b" stroke-width="1.51"/><path d="M-92,578L-75,687L-4,635Z" fill="#ad797f" stroke="#ad797f" stroke-width="1.51"/><path d="M263,-136L135,-103L229,-32Z" fill="#b23c3a" stroke="#b23c3a" stroke-width="1.51"/><path d="M55,76L-19,89L15,126Z" fill="#c3433d" stroke="#c3433d" stroke-width="1.51"/><path d="M15,126L-123,164L-47,246Z" fill="#be574c" stroke="#be574c" stroke-width="1.51"/><path d="M135,-103L57,-20L185,-30Z" fill="#b73033" stroke="#b73033" stroke-width="1.51"/><path d="M57,-20L-19,89L55,76Z" fill="#bf3736" stroke="#bf3736" stroke-width="1.51"/><path d="M-134,320L-127,428L-41,404Z" fill="#bf7c78" stroke="#bf7c78" stroke-width="1.51"/><path d="M1395,778L1383,691L1275,781Z" fill="#5290c3" stroke="#5290c3" stroke-width="1.51"/><path d="M-87,754L-23,845L16,720Z" fill="#946575" stroke="#946575" stroke-width="1.51"/><path d="M1390,467L1426,399L1340,381Z" fill="#9cabcc" stroke="#9cabcc" stroke-width="1.51"/><path d="M1351,237L1361,137L1304,160Z" fill="#a68796" stroke="#a68796" stroke-width="1.51"/><path d="M1464,491L1426,399L1390,467Z" fill="#96a8ce" stroke="#96a8ce" stroke-width="1.51"/><path d="M1290,848L1345,861L1275,781Z" fill="#3c87bd" stroke="#3c87bd" stroke-width="1.51"/><path d="M1197,946L1294,896L1228,866Z" fill="#3882bb" stroke="#3882bb" stroke-width="1.51"/><path d="M1299,1034L1294,896L1197,946Z" fill="#2f73ae" stroke="#2f73ae" stroke-width="1.51"/><path d="M-134,320L-4,295L-47,246Z" fill="#c57065" stroke="#c57065" stroke-width="1.51"/><path d="M-107,486L-127,428L-92,578Z" fill="#b78083" stroke="#b78083" stroke-width="1.51"/><path d="M54,1034L132,1039L55,925Z" fill="#82435c" stroke="#82435c" stroke-width="1.51"/><path d="M55,925L132,1039L167,928Z" fill="#8c516b" stroke="#8c516b" stroke-width="1.51"/><path d="M222,985L132,1039L346,990Z" fill="#8c5a6c" stroke="#8c5a6c" stroke-width="1.51"/><path d="M562,1023L132,1039L774,1043Z" fill="#8e7c8f" stroke="#8e7c8f" stroke-width="1.51"/><path d="M1463,207L1361,137L1351,237Z" fill="#a38397" stroke="#a38397" stroke-width="1.51"/><path d="M-123,164L-102,247L-47,246Z" fill="#b95f53" stroke="#b95f53" stroke-width="1.51"/><path d="M1426,399L1421,302L1340,381Z" fill="#9fa3c1" stroke="#9fa3c1" stroke-width="1.51"/><path d="M1310,92L1288,-7L1179,72Z" fill="#a17280" stroke="#a17280" stroke-width="1.51"/><path d="M1167,-31L1216,-114L1088,-93Z" fill="#976876" stroke="#976876" stroke-width="1.51"/><path d="M1400,40L1288,-7L1310,92Z" fill="#9a667a" stroke="#9a667a" stroke-width="1.51"/><path d="M1032,1043L1200,1024L1089,1007Z" fill="#4c78a4" stroke="#4c78a4" stroke-width="1.51"/><path d="M-127,428L-87,754L-92,578Z" fill="#ac7a80" stroke="#ac7a80" stroke-width="1.51"/><path d="M-75,687L-87,754L16,720Z" fill="#9d6d79" stroke="#9d6d79" stroke-width="1.51"/><path d="M-102,247L-134,320L-47,246Z" fill="#bd6a60" stroke="#bd6a60" stroke-width="1.51"/><path d="M135,-103L60,-84L57,-20Z" fill="#ac242e" stroke="#ac242e" stroke-width="1.51"/><path d="M57,-20L-30,-30L-19,89Z" fill="#b32930" stroke="#b32930" stroke-width="1.51"/><path d="M-19,89L-123,164L15,126Z" fill="#b94841" stroke="#b94841" stroke-width="1.51"/><path d="M-4,-118L60,-84L135,-103Z" fill="#a01c2b" stroke="#a01c2b" stroke-width="1.51"/><path d="M1377,925L1345,861L1294,896Z" fill="#3077b5" stroke="#3077b5" stroke-width="1.51"/><path d="M1294,896L1345,861L1290,848Z" fill="#367fb9" stroke="#367fb9" stroke-width="1.51"/><path d="M-87,892L-3,924L-23,845Z" fill="#814e6b" stroke="#814e6b" stroke-width="1.51"/><path d="M-23,845L-3,924L55,925Z" fill="#8b506c" stroke="#8b506c" stroke-width="1.51"/><path d="M1288,-7L1216,-114L1167,-31Z" fill="#966273" stroke="#966273" stroke-width="1.51"/><path d="M1088,-93L1216,-114L928,-145Z" fill="#976d79" stroke="#976d79" stroke-width="1.51"/><path d="M1482,579L1464,491L1352,563Z" fill="#86a1ca" stroke="#86a1ca" stroke-width="1.51"/><path d="M1345,861L1395,778L1275,781Z" fill="#3e87bd" stroke="#3e87bd" stroke-width="1.51"/><path d="M1510,300L1463,207L1421,302Z" fill="#9a889e" stroke="#9a889e" stroke-width="1.51"/><path d="M1482,579L1352,563L1383,691Z" fill="#7a9ecc" stroke="#7a9ecc" stroke-width="1.51"/><path d="M-98,68L-123,164L-19,89Z" fill="#ae3f3c" stroke="#ae3f3c" stroke-width="1.51"/><path d="M-102,247L-123,164L-134,320Z" fill="#b56158" stroke="#b56158" stroke-width="1.51"/><path d="M11,1034L54,1034L55,925Z" fill="#7e3d58" stroke="#7e3d58" stroke-width="1.51"/><path d="M60,-84L-30,-30L57,-20Z" fill="#ae172b" stroke="#ae172b" stroke-width="1.51"/><path d="M1477,699L1482,579L1383,691Z" fill="#6992bf" stroke="#6992bf" stroke-width="1.51"/><path d="M1288,-7L1255,-132L1216,-114Z" fill="#875a6f" stroke="#875a6f" stroke-width="1.51"/><path d="M1216,-114L1255,-132L928,-145Z" fill="#896474" stroke="#896474" stroke-width="1.51"/><path d="M1393,-103L1255,-132L1288,-7Z" fill="#84536c" stroke="#84536c" stroke-width="1.51"/><path d="M-30,-30L-98,68L-19,89Z" fill="#ac2e33" stroke="#ac2e33" stroke-width="1.51"/><path d="M-3,924L11,1034L55,925Z" fill="#844361" stroke="#844361" stroke-width="1.51"/><path d="M-87,754L-93,860L-23,845Z" fill="#81586e" stroke="#81586e" stroke-width="1.51"/><path d="M-127,428L-93,860L-87,754Z" fill="#986f7a" stroke="#986f7a" stroke-width="1.51"/><path d="M1361,137L1400,40L1310,92Z" fill="#9e6d81" stroke="#9e6d81" stroke-width="1.51"/><path d="M1421,302L1463,207L1351,237Z" fill="#a28da4" stroke="#a28da4" stroke-width="1.51"/><path d="M1510,300L1421,302L1426,399Z" fill="#9a97b2" stroke="#9a97b2" stroke-width="1.51"/><path d="M1519,434L1426,399L1464,491Z" fill="#92a0c3" stroke="#92a0c3" stroke-width="1.51"/><path d="M-93,860L-87,892L-23,845Z" fill="#7c506a" stroke="#7c506a" stroke-width="1.51"/><path d="M1475,132L1400,40L1361,137Z" fill="#9a6981" stroke="#9a6981" stroke-width="1.51"/><path d="M1476,732L1383,691L1395,778Z" fill="#538abf" stroke="#538abf" stroke-width="1.51"/><path d="M1476,732L1477,699L1383,691Z" fill="#598bbc" stroke="#598bbc" stroke-width="1.51"/><path d="M54,1034L11,1034L132,1039Z" fill="#793850" stroke="#793850" stroke-width="1.51"/><path d="M-80,1020L11,1034L-3,924Z" fill="#733856" stroke="#733856" stroke-width="1.51"/><path d="M1345,861L1440,835L1395,778Z" fill="#347cb8" stroke="#347cb8" stroke-width="1.51"/><path d="M1347,977L1377,925L1294,896Z" fill="#2a6fb1" stroke="#2a6fb1" stroke-width="1.51"/><path d="M1200,1024L1299,1034L1197,946Z" fill="#2f6da2" stroke="#2f6da2" stroke-width="1.51"/><path d="M1032,1043L1299,1034L1200,1024Z" fill="#3a6c9c" stroke="#3a6c9c" stroke-width="1.51"/><path d="M1299,1034L1347,977L1294,896Z" fill="#296aa7" stroke="#296aa7" stroke-width="1.51"/><path d="M1515,546L1464,491L1482,579Z" fill="#8198bd" stroke="#8198bd" stroke-width="1.51"/><path d="M1561,525L1519,434L1464,491Z" fill="#8796b8" stroke="#8796b8" stroke-width="1.51"/><path d="M1535,692L1515,546L1482,579Z" fill="#708db5" stroke="#708db5" stroke-width="1.51"/><path d="M1535,692L1561,525L1515,546Z" fill="#728bb0" stroke="#728bb0" stroke-width="1.51"/><path d="M1440,835L1476,732L1395,778Z" fill="#3f7eb5" stroke="#3f7eb5" stroke-width="1.51"/><path d="M-30,-30L-133,-44L-98,68Z" fill="#9d1d2b" stroke="#9d1d2b" stroke-width="1.51"/><path d="M60,-84L-4,-118L-30,-30Z" fill="#9f1229" stroke="#9f1229" stroke-width="1.51"/><path d="M263,-136L-4,-118L135,-103Z" fill="#a12a31" stroke="#a12a31" stroke-width="1.51"/><path d="M1446,36L1382,-32L1400,40Z" fill="#915571" stroke="#915571" stroke-width="1.51"/><path d="M1519,434L1510,300L1426,399Z" fill="#9496b3" stroke="#9496b3" stroke-width="1.51"/><path d="M1464,953L1440,835L1377,925Z" fill="#2569ab" stroke="#2569ab" stroke-width="1.51"/><path d="M1377,925L1440,835L1345,861Z" fill="#2e74b3" stroke="#2e74b3" stroke-width="1.51"/><path d="M1400,40L1382,-32L1288,-7Z" fill="#935a72" stroke="#935a72" stroke-width="1.51"/><path d="M1475,132L1361,137L1463,207Z" fill="#9c7489" stroke="#9c7489" stroke-width="1.51"/><path d="M1522,174L1475,132L1463,207Z" fill="#956e80" stroke="#956e80" stroke-width="1.51"/><path d="M1475,132L1446,36L1400,40Z" fill="#935c74" stroke="#935c74" stroke-width="1.51"/><path d="M1519,434L1559,267L1510,300Z" fill="#9189a1" stroke="#9189a1" stroke-width="1.51"/><path d="M1559,267L1522,174L1463,207Z" fill="#947484" stroke="#947484" stroke-width="1.51"/><path d="M1515,546L1561,525L1464,491Z" fill="#8194b8" stroke="#8194b8" stroke-width="1.51"/><path d="M1535,692L1482,579L1477,699Z" fill="#6389b3" stroke="#6389b3" stroke-width="1.51"/><path d="M1535,692L1477,699L1476,732Z" fill="#5482af" stroke="#5482af" stroke-width="1.51"/><path d="M1569,757L1535,692L1476,732Z" fill="#4b79a7" stroke="#4b79a7" stroke-width="1.51"/><path d="M1569,757L1476,732L1562,828Z" fill="#3b6ea0" stroke="#3b6ea0" stroke-width="1.51"/><path d="M1538,83L1468,-5L1446,36Z" fill="#894e66" stroke="#894e66" stroke-width="1.51"/><path d="M1559,267L1463,207L1510,300Z" fill="#947d91" stroke="#947d91" stroke-width="1.51"/><path d="M-87,892L-80,1020L-3,924Z" fill="#754162" stroke="#754162" stroke-width="1.51"/><path d="M-93,860L-80,1020L-87,892Z" fill="#714365" stroke="#714365" stroke-width="1.51"/><path d="M1561,525L1559,267L1519,434Z" fill="#8b8eab" stroke="#8b8eab" stroke-width="1.51"/><path d="M1382,-32L1393,-103L1288,-7Z" fill="#8b516c" stroke="#8b516c" stroke-width="1.51"/><path d="M1468,-5L1393,-103L1382,-32Z" fill="#874868" stroke="#874868" stroke-width="1.51"/><path d="M1468,-5L1382,-32L1446,36Z" fill="#8c4e6b" stroke="#8c4e6b" stroke-width="1.51"/><path d="M-98,-106L-133,-44L-30,-30Z" fill="#900c26" stroke="#900c26" stroke-width="1.51"/><path d="M-98,68L-133,-44L-123,164Z" fill="#9f2f33" stroke="#9f2f33" stroke-width="1.51"/><path d="M-123,164L-133,-44L-134,320Z" fill="#a84741" stroke="#a84741" stroke-width="1.51"/><path d="M-4,-118L-98,-106L-30,-30Z" fill="#920d26" stroke="#920d26" stroke-width="1.51"/><path d="M1538,83L1475,132L1522,174Z" fill="#8e5f71" stroke="#8e5f71" stroke-width="1.51"/><path d="M1538,83L1446,36L1475,132Z" fill="#8e576c" stroke="#8e576c" stroke-width="1.51"/><path d="M1347,977L1464,953L1377,925Z" fill="#2164a7" stroke="#2164a7" stroke-width="1.51"/><path d="M1424,1041L1464,953L1347,977Z" fill="#1b599a" stroke="#1b599a" stroke-width="1.51"/><path d="M1559,267L1538,83L1522,174Z" fill="#8d6575" stroke="#8d6575" stroke-width="1.51"/><path d="M1468,-5L1437,-136L1393,-103Z" fill="#794162" stroke="#794162" stroke-width="1.51"/><path d="M1535,692L1569,757L1561,525Z" fill="#5d7fa6" stroke="#5d7fa6" stroke-width="1.51"/><path d="M1561,525L1569,757L1559,267Z" fill="#7c8bad" stroke="#7c8bad" stroke-width="1.51"/><path d="M1562,828L1476,732L1440,835Z" fill="#3471a7" stroke="#3471a7" stroke-width="1.51"/><path d="M1464,953L1562,828L1440,835Z" fill="#2665a0" stroke="#2665a0" stroke-width="1.51"/><path d="M1299,1034L1424,1041L1347,977Z" fill="#1f5994" stroke="#1f5994" stroke-width="1.51"/><path d="M1032,1043L1424,1041L1299,1034Z" fill="#276194" stroke="#276194" stroke-width="1.51"/><path d="M1574,941L1562,828L1464,953Z" fill="#1c5793" stroke="#1c5793" stroke-width="1.51"/><path d="M1566,-81L1437,-136L1468,-5Z" fill="#723857" stroke="#723857" stroke-width="1.51"/><path d="M1393,-103L1437,-136L1255,-132Z" fill="#714766" stroke="#714766" stroke-width="1.51"/><path d="M1255,-132L1437,-136L928,-145Z" fill="#7b596f" stroke="#7b596f" stroke-width="1.51"/><path d="M1538,83L1532,-9L1468,-5Z" fill="#83455d" stroke="#83455d" stroke-width="1.51"/><path d="M1566,-81L1532,-9L1538,83Z" fill="#7b3b53" stroke="#7b3b53" stroke-width="1.51"/><path d="M1562,828L1574,941L1569,757Z" fill="#245d91" stroke="#245d91" stroke-width="1.51"/><path d="M1569,757L1566,-81L1559,267Z" fill="#8d8094" stroke="#8d8094" stroke-width="1.51"/><path d="M1534,1028L1574,941L1464,953Z" fill="#144a86" stroke="#144a86" stroke-width="1.51"/><path d="M1424,1041L1534,1028L1464,953Z" fill="#144b87" stroke="#144b87" stroke-width="1.51"/><path d="M1574,941L1566,-81L1569,757Z" fill="#7889ab" stroke="#7889ab" stroke-width="1.51"/><path d="M1559,267L1566,-81L1538,83Z" fill="#844e60" stroke="#844e60" stroke-width="1.51"/><path d="M1532,-9L1566,-81L1468,-5Z" fill="#7b3954" stroke="#7b3954" stroke-width="1.51"/></svg>